<?xml version="1.0" encoding="UTF-8" standalone="no"?>
<!-- Created with Inkscape (http://www.inkscape.org/) -->

<svg
   xmlns:dc="http://purl.org/dc/elements/1.1/"
   xmlns:cc="http://creativecommons.org/ns#"
   xmlns:rdf="http://www.w3.org/1999/02/22-rdf-syntax-ns#"
   xmlns:svg="http://www.w3.org/2000/svg"
   xmlns="http://www.w3.org/2000/svg"
   xmlns:sodipodi="http://sodipodi.sourceforge.net/DTD/sodipodi-0.dtd"
   xmlns:inkscape="http://www.inkscape.org/namespaces/inkscape"
   width="620"
   height="720"
   viewBox="0 0 164.04167 190.50001"
   version="1.1"
   id="svg4555"
   inkscape:version="0.92.5 (2060ec1f9f, 2020-04-08)"
   sodipodi:docname="walls.svg">
  <defs
     id="defs4549" />
  <sodipodi:namedview
     id="base"
     pagecolor="#ffffff"
     bordercolor="#666666"
     borderopacity="1.0"
     inkscape:pageopacity="0.0"
     inkscape:pageshadow="2"
     inkscape:zoom="0.98994949"
     inkscape:cx="240.26784"
     inkscape:cy="222.2685"
     inkscape:document-units="mm"
     inkscape:current-layer="layer1"
     showgrid="false"
     units="px"
     inkscape:window-width="1366"
     inkscape:window-height="768"
     inkscape:window-x="0"
     inkscape:window-y="0"
     inkscape:window-maximized="1" />
  <metadata
     id="metadata4552">
    <rdf:RDF>
      <cc:Work
         rdf:about="">
        <dc:format>image/svg+xml</dc:format>
        <dc:type
           rdf:resource="http://purl.org/dc/dcmitype/StillImage" />
        <dc:title />
      </cc:Work>
    </rdf:RDF>
  </metadata>
  <g
     inkscape:label="Layer 1"
     inkscape:groupmode="layer"
     id="layer1"
     transform="translate(0,-106.49998)">
    <path
       id="rect894"
       transform="rotate(90)"
       style="fill:#1a1a1a;fill-rule:nonzero;stroke-width:0.55746466"
       d="m 266.16563,-164.04167 h 29.81118 c 0.56682,0 1.02314,0.45632 1.02314,1.02314 V -1.0231411 C 296.99995,-0.45632095 296.54363,0 295.97681,0 h -29.81118 c -0.56682,0 -1.02314,-0.45632095 -1.02314,-1.0231411 V -163.01853 c 0,-0.56682 0.45632,-1.02314 1.02314,-1.02314 z m 21.16672,0 h 8.64449 c 0.56682,0 1.02314,0.45632 1.02314,1.02314 V -1.0231411 C 296.99998,-0.45632095 296.54366,0 295.97684,0 h -8.64449 c -0.56682,0 -1.02315,-0.45632095 -1.02315,-1.0231411 V -163.01853 c 0,-0.56682 0.45633,-1.02314 1.02315,-1.02314 z m -179.80923,0 h 8.6445 c 0.56682,0 1.02314,0.45632 1.02314,1.02314 V -1.0231411 C 117.19076,-0.45632095 116.73444,0 116.16762,0 h -8.6445 c -0.56682,0 -1.02314,-0.45632095 -1.02314,-1.0231411 V -163.01853 c 0,-0.56682 0.45632,-1.02314 1.02314,-1.02314 z m -1.02314,9.66764 v -8.6445 c 0,-0.56682 0.45632,-1.02314 1.02314,-1.02314 l 188.45372,0 c 0.56682,0 1.02314,0.45632 1.02314,1.02314 v 8.6445 c 0,0.56682 -0.45632,1.02314 -1.02314,1.02314 l -188.45372,0 c -0.56682,0 -1.02314,-0.45632 -1.02314,-1.02314 z m 0,153.3508889 v -8.6444984 c 0,-0.5668205 0.45632,-1.0231415 1.02314,-1.0231415 l 188.45372,0 c 0.56682,0 1.02314,0.456321 1.02314,1.0231415 v 8.6444984 C 296.99998,-0.45632095 296.54366,0 295.97684,0 L 107.52312,0 c -0.56682,0 -1.02314,-0.45632095 -1.02314,-1.0231411 z" />
  </g>
</svg>
